<mxfile host="app.diagrams.net" modified="2022-06-08T13:06:18.448Z" agent="5.0 (Windows NT 10.0; Win64; x64) AppleWebKit/537.36 (KHTML, like Gecko) Chrome/102.0.5005.63 Safari/537.36" etag="xtjYZSp_AtMhLmDWdOD1" version="19.0.2" type="github">
  <diagram id="sJcd6hSSCaQH8sDwPpXX" name="Page-1">
    <mxGraphModel dx="1422" dy="762" grid="1" gridSize="10" guides="1" tooltips="1" connect="1" arrows="1" fold="1" page="1" pageScale="1" pageWidth="2339" pageHeight="3300" math="0" shadow="0">
      <root>
        <mxCell id="0" />
        <mxCell id="1" parent="0" />
        <mxCell id="9PFuTSBK8drSxWqYBsqL-1" value="" style="rounded=0;whiteSpace=wrap;html=1;fillColor=#dae8fc;strokeColor=#6c8ebf;sketch=1;" vertex="1" parent="1">
          <mxGeometry x="320" y="200" width="700" height="80" as="geometry" />
        </mxCell>
        <mxCell id="9PFuTSBK8drSxWqYBsqL-2" value="&lt;font style=&quot;font-size: 24px;&quot;&gt;&lt;b&gt;&lt;i&gt;堆&lt;/i&gt;&lt;/b&gt;&lt;/font&gt;" style="text;html=1;align=center;verticalAlign=middle;resizable=0;points=[];autosize=1;strokeColor=none;fillColor=none;" vertex="1" parent="1">
          <mxGeometry x="650" y="480" width="40" height="20" as="geometry" />
        </mxCell>
        <mxCell id="9PFuTSBK8drSxWqYBsqL-3" value="&lt;b&gt;&lt;i&gt;伊甸园区&lt;/i&gt;&lt;/b&gt;" style="rounded=0;whiteSpace=wrap;html=1;fontSize=24;fillColor=#f8cecc;strokeColor=#b85450;sketch=1;" vertex="1" parent="1">
          <mxGeometry x="320" y="200" width="520" height="80" as="geometry" />
        </mxCell>
        <mxCell id="9PFuTSBK8drSxWqYBsqL-4" value="&lt;i&gt;&lt;b&gt;新生代&lt;/b&gt;&lt;/i&gt;" style="text;html=1;align=center;verticalAlign=middle;resizable=0;points=[];autosize=1;strokeColor=none;fillColor=none;fontSize=24;" vertex="1" parent="1">
          <mxGeometry x="320" y="160" width="90" height="30" as="geometry" />
        </mxCell>
        <mxCell id="9PFuTSBK8drSxWqYBsqL-5" value="&lt;b&gt;&lt;i&gt;幸存&lt;/i&gt;&lt;/b&gt;" style="rounded=0;whiteSpace=wrap;html=1;sketch=1;fontSize=24;fillColor=#fff2cc;strokeColor=#d6b656;align=right;" vertex="1" parent="1">
          <mxGeometry x="840" y="200" width="90" height="80" as="geometry" />
        </mxCell>
        <mxCell id="9PFuTSBK8drSxWqYBsqL-6" value="&lt;i&gt;&lt;b&gt;者区&lt;/b&gt;&lt;/i&gt;" style="rounded=0;whiteSpace=wrap;html=1;sketch=1;fontSize=24;fillColor=#fff2cc;strokeColor=#d6b656;align=left;" vertex="1" parent="1">
          <mxGeometry x="930" y="200" width="90" height="80" as="geometry" />
        </mxCell>
        <mxCell id="9PFuTSBK8drSxWqYBsqL-7" value="&lt;b&gt;&lt;i&gt;s0&lt;/i&gt;&lt;/b&gt;" style="text;html=1;align=center;verticalAlign=middle;resizable=0;points=[];autosize=1;strokeColor=none;fillColor=none;fontSize=24;" vertex="1" parent="1">
          <mxGeometry x="865" y="250" width="40" height="30" as="geometry" />
        </mxCell>
        <mxCell id="9PFuTSBK8drSxWqYBsqL-8" value="&lt;b&gt;&lt;i&gt;s1&lt;/i&gt;&lt;/b&gt;" style="text;html=1;align=center;verticalAlign=middle;resizable=0;points=[];autosize=1;strokeColor=none;fillColor=none;fontSize=24;" vertex="1" parent="1">
          <mxGeometry x="950" y="250" width="40" height="30" as="geometry" />
        </mxCell>
        <mxCell id="9PFuTSBK8drSxWqYBsqL-9" value="" style="rounded=0;whiteSpace=wrap;html=1;sketch=1;fontSize=24;fillColor=#d5e8d4;strokeColor=#82b366;" vertex="1" parent="1">
          <mxGeometry x="320" y="280" width="700" height="180" as="geometry" />
        </mxCell>
        <mxCell id="9PFuTSBK8drSxWqYBsqL-10" value="&lt;i&gt;&lt;b&gt;老年代&lt;/b&gt;&lt;/i&gt;" style="text;html=1;align=center;verticalAlign=middle;resizable=0;points=[];autosize=1;strokeColor=none;fillColor=none;fontSize=24;" vertex="1" parent="1">
          <mxGeometry x="320" y="300" width="90" height="30" as="geometry" />
        </mxCell>
      </root>
    </mxGraphModel>
  </diagram>
</mxfile>
